<mxfile host="65bd71144e">
    <diagram id="vMmlhhwGIHPSdhyl3SZm" name="ページ1">
        <mxGraphModel dx="654" dy="587" grid="1" gridSize="10" guides="1" tooltips="1" connect="1" arrows="1" fold="1" page="1" pageScale="1" pageWidth="827" pageHeight="1169" math="0" shadow="0">
            <root>
                <mxCell id="0"/>
                <mxCell id="1" parent="0"/>
                <mxCell id="3" value="ユーザー" style="shape=umlLifeline;perimeter=lifelinePerimeter;whiteSpace=wrap;html=1;container=1;dropTarget=0;collapsible=0;recursiveResize=0;outlineConnect=0;portConstraint=eastwest;newEdgeStyle={&quot;curved&quot;:0,&quot;rounded&quot;:0};" vertex="1" parent="1">
                    <mxGeometry x="230" y="200" width="100" height="300" as="geometry"/>
                </mxCell>
                <mxCell id="4" value="Web" style="shape=umlLifeline;perimeter=lifelinePerimeter;whiteSpace=wrap;html=1;container=1;dropTarget=0;collapsible=0;recursiveResize=0;outlineConnect=0;portConstraint=eastwest;newEdgeStyle={&quot;curved&quot;:0,&quot;rounded&quot;:0};" vertex="1" parent="1">
                    <mxGeometry x="350" y="200" width="100" height="300" as="geometry"/>
                </mxCell>
                <mxCell id="5" value="API" style="shape=umlLifeline;perimeter=lifelinePerimeter;whiteSpace=wrap;html=1;container=1;dropTarget=0;collapsible=0;recursiveResize=0;outlineConnect=0;portConstraint=eastwest;newEdgeStyle={&quot;edgeStyle&quot;:&quot;elbowEdgeStyle&quot;,&quot;elbow&quot;:&quot;vertical&quot;,&quot;curved&quot;:0,&quot;rounded&quot;:0};" vertex="1" parent="1">
                    <mxGeometry x="470" y="200" width="100" height="300" as="geometry"/>
                </mxCell>
                <mxCell id="6" value="DB" style="shape=umlLifeline;perimeter=lifelinePerimeter;whiteSpace=wrap;html=1;container=1;dropTarget=0;collapsible=0;recursiveResize=0;outlineConnect=0;portConstraint=eastwest;newEdgeStyle={&quot;edgeStyle&quot;:&quot;elbowEdgeStyle&quot;,&quot;elbow&quot;:&quot;vertical&quot;,&quot;curved&quot;:0,&quot;rounded&quot;:0};" vertex="1" parent="1">
                    <mxGeometry x="590" y="200" width="100" height="300" as="geometry"/>
                </mxCell>
                <mxCell id="7" value="追加ボタン押す" style="endArrow=open;html=1;rounded=0;align=center;verticalAlign=bottom;endFill=0;labelBackgroundColor=none;" edge="1" parent="1">
                    <mxGeometry relative="1" as="geometry">
                        <mxPoint x="280" y="280" as="sourcePoint"/>
                        <mxPoint x="400" y="280" as="targetPoint"/>
                    </mxGeometry>
                </mxCell>
                <mxCell id="10" value="POST/ todos" style="html=1;verticalAlign=bottom;labelBackgroundColor=none;endArrow=block;endFill=1;endSize=6;align=left;" edge="1" parent="1">
                    <mxGeometry x="-1" relative="1" as="geometry">
                        <mxPoint x="400" y="300" as="sourcePoint"/>
                        <mxPoint x="520" y="300" as="targetPoint"/>
                    </mxGeometry>
                </mxCell>
                <mxCell id="11" value="&amp;nbsp; Insert Todo" style="html=1;verticalAlign=bottom;labelBackgroundColor=none;endArrow=block;endFill=1;endSize=6;align=left;" edge="1" parent="1">
                    <mxGeometry x="-1" relative="1" as="geometry">
                        <mxPoint x="520" y="330" as="sourcePoint"/>
                        <mxPoint x="640" y="330" as="targetPoint"/>
                    </mxGeometry>
                </mxCell>
                <mxCell id="16" value="新しいTodo返す" style="endArrow=none;html=1;endSize=12;startArrow=none;startSize=14;startFill=0;edgeStyle=orthogonalEdgeStyle;align=center;verticalAlign=bottom;endFill=0;" edge="1" parent="1">
                    <mxGeometry y="3" relative="1" as="geometry">
                        <mxPoint x="520" y="370" as="sourcePoint"/>
                        <mxPoint x="640" y="370" as="targetPoint"/>
                    </mxGeometry>
                </mxCell>
                <mxCell id="17" value="" style="endArrow=none;html=1;rounded=0;align=center;verticalAlign=top;endFill=0;labelBackgroundColor=none;endSize=6;startArrow=oval;startFill=1;" edge="1" parent="1" source="4">
                    <mxGeometry relative="1" as="geometry">
                        <mxPoint x="410" y="390" as="sourcePoint"/>
                        <mxPoint x="520" y="390" as="targetPoint"/>
                    </mxGeometry>
                </mxCell>
                <mxCell id="18" value="Web: 201" style="text;html=1;align=center;verticalAlign=middle;resizable=0;points=[];autosize=1;strokeColor=none;fillColor=none;" vertex="1" parent="1">
                    <mxGeometry x="414" y="360" width="70" height="30" as="geometry"/>
                </mxCell>
                <mxCell id="19" value="新しいTodo表示" style="endArrow=none;html=1;endSize=12;startArrow=none;startSize=14;startFill=0;edgeStyle=orthogonalEdgeStyle;align=center;verticalAlign=bottom;endFill=0;" edge="1" parent="1">
                    <mxGeometry y="3" relative="1" as="geometry">
                        <mxPoint x="280" y="410" as="sourcePoint"/>
                        <mxPoint x="400" y="410" as="targetPoint"/>
                    </mxGeometry>
                </mxCell>
            </root>
        </mxGraphModel>
    </diagram>
</mxfile>